# xmcd CD database file
#
# Track frame offsets:
#	150
#	2987
#	25569
#	42640
#	62315
#	77256
#	94883
#	97903
#	110726
#	127602
#	147390
#	165591
#	181741
#	186179
#	200051
#	202679
#	220690
#
# Disc length: 3155 seconds
#
# Revision: 0
# Processed by: cddbd v1.5.2PL0 Copyright (c) Steve Scherf et al.
# Submitted via: CDex 1.70beta2
#
DISCID=d50c5111
DTITLE=Stone Age - Totems d'Armorique
DYEAR=1900
DGENRE=New Age
TTITLE0=Vibration lithique
TTITLE1=Menez an Indian Koz
TTITLE2=Totems d'Armorique
TTITLE3=Freedom of light
TTITLE4=Inkantator
TTITLE5=Enez sun
TTITLE6=Vibration lithique 2
TTITLE7=L'homme de pierre (1)
TTITLE8=L'homme de pierre (2)
TTITLE9=Organik reel
TTITLE10=The crimson flow
TTITLE11=Yann-Debastian dans
TTITLE12=Kervrumble
TTITLE13=Born in G
TTITLE14=Vibration lithique 3
TTITLE15=harbour wall
TTITLE16=Y'a foule sur ile
EXTD=
EXTT0=
EXTT1=
EXTT2=
EXTT3=
EXTT4=
EXTT5=
EXTT6=
EXTT7=
EXTT8=
EXTT9=
EXTT10=
EXTT11=
EXTT12=
EXTT13=
EXTT14=
EXTT15=
EXTT16=
PLAYORDER=
